{"title":"Dirty Politics (2015) Web Rip - XviD - [1CD] - M-Subs - IcTv Lot","uid":11816575,"size":728417644,"categoryP":"video","categoryS":"other","magnet":"?xt=urn:btih:3c01a5d452417f4c46c9fbc0dfd9648cfb7472e0&amp;dn=Dirty+Politics+%282015%29+Web+Rip+-+XviD+-+%5B1CD%5D+-+M-Subs+-+IcTv+Lot&amp;tr=udp%3A%2F%2Ftracker.openbittorrent.com%3A80&amp;tr=udp%3A%2F%2Fopen.demonii.com%3A1337&amp;tr=udp%3A%2F%2Ftracker.coppersurfer.tk%3A6969&amp;tr=udp%3A%2F%2Fexodus.desync.com%3A6969","seeders":1,"leechers":2,"uploader":"SS132203","files":13,"time":1429111342,"description":"Dirty Politics (2015) Web Rip - XviD - [1CD] - M-Subs - IcTv Lottery Exclusive -={SPARROW}=-\n &lt;a href=&quot;\nhttp://imgsparrow.co/image/9X&quot; rel=&quot;nofollow&quot; target=&quot;_NEW&quot;&gt;\nhttp://imgsparrow.co/image/9X&lt;/a&gt;\n &lt;a href=&quot;\nhttp://imgsparrow.co/image/9b&quot; rel=&quot;nofollow&quot; target=&quot;_NEW&quot;&gt;\nhttp://imgsparrow.co/image/9b&lt;/a&gt;\n\nMovie Info\nBanner : B.M.B Music &amp; Magnetics Ltd.\nYear : 2015\nCast : Mallika Sherawat Jackie Shroff Ashutosh Rana Naseeruddin Shah\nVideo: XviD\nAudio : MP3\nGenre : Drama\nSubtitles : ENGLISH-DANISH-ARABIC-FRENCH-GERMAN-GUJRATI-RUSSIAN-TAMIL-TELUGU-URDU\nResolution : 640 x 272\nRuntime : 2hr 10min xx\nSource : IcTv LotterY\n\nFormat : AVI\nFormat/Info : Audio Video Interleave\nFile size : 692 MiB\nDuration : 2h 9mn\nOverall bit rate : 745 Kbps\n\nVideo\nCodec ID : XVID\nCodec ID/Hint : XviD\nDuration : 2h 9mn\nBit rate : 612 Kbps\nWidth : 640 pixels\nHeight : 272 pixels\nDisplay aspect ratio : 2.35:1\nFrame rate : 24.000 fps\nColor space : YUV\nChroma subsampling : 4:2:0\nBit depth : 8 bits\nScan type : Progressive\nCompression mode : Lossy\nBits/(Pixel*Frame) : 0.146\nStream size : 568 MiB (82%)\n\nAudio\nID : 1\nFormat : MPEG Audio\nFormat version : Version 1\nFormat profile : Layer 3\nMode : Joint stereo\nMode extension : MS Stereo\nCodec ID : 55\nCodec ID/Hint : MP3\nDuration : 2h 9mn\nBit rate mode : Constant\nBit rate : 128 Kbps\nChannel(s) : 2 channels\nSampling rate : 44.1 KHz\nCompression mode : Lossy\nStream size : 119 MiB (17%)\n &lt;a href=&quot;\nhttp://imgsparrow.co/image/9h&quot; rel=&quot;nofollow&quot; target=&quot;_NEW&quot;&gt;\nhttp://imgsparrow.co/image/9h&lt;/a&gt;\n &lt;a href=&quot;\nhttp://imgsparrow.co/image/9Y&quot; rel=&quot;nofollow&quot; target=&quot;_NEW&quot;&gt;\nhttp://imgsparrow.co/image/9Y&lt;/a&gt; &lt;a href=&quot;\nhttp://imgsparrow.co/image/9c&quot; rel=&quot;nofollow&quot; target=&quot;_NEW&quot;&gt;\nhttp://imgsparrow.co/image/9c&lt;/a&gt; &lt;a href=&quot;\nhttp://imgsparrow.co/image/9d&quot; rel=&quot;nofollow&quot; target=&quot;_NEW&quot;&gt;\nhttp://imgsparrow.co/image/9d&lt;/a&gt; &lt;a href=&quot;\nhttp://imgsparrow.co/image/9o&quot; rel=&quot;nofollow&quot; target=&quot;_NEW&quot;&gt;\nhttp://imgsparrow.co/image/9o&lt;/a&gt; &lt;a href=&quot;\nhttp://imgsparrow.co/image/9M&quot; rel=&quot;nofollow&quot; target=&quot;_NEW&quot;&gt;\nhttp://imgsparrow.co/image/9M&lt;/a&gt; &lt;a href=&quot;\nhttp://imgsparrow.co/image/9m&quot; rel=&quot;nofollow&quot; target=&quot;_NEW&quot;&gt;\nhttp://imgsparrow.co/image/9m&lt;/a&gt; &lt;a href=&quot;\nhttp://imgsparrow.co/image/9F&quot; rel=&quot;nofollow&quot; target=&quot;_NEW&quot;&gt;\nhttp://imgsparrow.co/image/9F&lt;/a&gt; &lt;a href=&quot;\nhttp://imgsparrow.co/image/9O&quot; rel=&quot;nofollow&quot; target=&quot;_NEW&quot;&gt;\nhttp://imgsparrow.co/image/9O&lt;/a&gt; &lt;a href=&quot;\nhttp://imgsparrow.co/image/9p&quot; rel=&quot;nofollow&quot; target=&quot;_NEW&quot;&gt;\nhttp://imgsparrow.co/image/9p&lt;/a&gt; &lt;a href=&quot;\nhttp://imgsparrow.co/image/90&quot; rel=&quot;nofollow&quot; target=&quot;_NEW&quot;&gt;\nhttp://imgsparrow.co/image/90&lt;/a&gt;\n\nAll Credit Goes To Intellect Clever &amp; IcTv\n &lt;a href=&quot;\nhttp://imgsparrow.org/images/2015/02/22/SPARROW.gif&quot; rel=&quot;nofollow&quot; target=&quot;_NEW&quot;&gt;\nhttp://imgsparrow.org/images/2015/02/22/SPARROW.gif&lt;/a&gt;","torrent":{"xt":"urn:btih:3c01a5d452417f4c46c9fbc0dfd9648cfb7472e0","amp;dn":"Dirty+Politics+%282015%29+Web+Rip+-+XviD+-+%5B1CD%5D+-+M-Subs+-+IcTv+Lot","amp;tr":["udp%3A%2F%2Ftracker.openbittorrent.com%3A80","udp%3A%2F%2Fopen.demonii.com%3A1337","udp%3A%2F%2Ftracker.coppersurfer.tk%3A6969","udp%3A%2F%2Fexodus.desync.com%3A6969"],"infoHash":"3c01a5d452417f4c46c9fbc0dfd9648cfb7472e0","infoHashBuffer":{"type":"Buffer","data":[60,1,165,212,82,65,127,76,70,201,251,192,223,217,100,140,251,116,114,224]},"announce":[],"urlList":[]}}